<?xml version="1.0" standalone="no"?>
<!DOCTYPE svg PUBLIC "-//W3C//DTD SVG 20010904//EN"
 "http://www.w3.org/TR/2001/REC-SVG-20010904/DTD/svg10.dtd">
<svg version="1.0" xmlns="http://www.w3.org/2000/svg"
 width="1242.000000pt" height="2688.000000pt" viewBox="0 0 1242.000000 2688.000000"
 preserveAspectRatio="xMidYMid meet">

<g transform="translate(0.000000,2688.000000) scale(0.500000,-0.500000)"
fill="#000000" stroke="none">
<path d="M0 13440 l0 -13440 6210 0 6210 0 0 13440 0 13440 -6210 0 -6210 0 0
-13440z m6373 5337 c15 -9 33 -17 42 -17 8 0 15 -6 15 -12 0 -7 616 -629 1369
-1383 1264 -1264 1370 -1373 1381 -1415 46 -173 -108 -323 -276 -270 -32 10
-262 235 -1256 1228 l-1218 1217 0 -2323 0 -2322 955 0 955 0 0 -215 0 -215
-955 0 -955 0 0 -1490 0 -1490 -215 0 -215 0 0 1490 0 1490 -955 0 -955 0 0
215 0 215 955 0 955 0 0 2322 0 2323 -1217 -1217 c-995 -993 -1225 -1218
-1257 -1228 -172 -55 -336 115 -272 283 13 34 274 300 1381 1407 751 751 1365
1371 1365 1377 0 7 9 13 19 13 11 0 23 4 26 10 12 20 73 28 186 26 90 -1 122
-6 142 -19z m-1233 -9782 l0 -146 28 21 c34 26 124 41 181 30 55 -10 89 -35
115 -86 19 -35 21 -60 24 -241 l4 -203 -36 0 -36 0 0 188 c0 161 -3 193 -19
228 -15 32 -27 45 -56 54 -56 19 -120 5 -163 -35 l-37 -33 -3 -201 -3 -201
-35 0 -34 0 0 385 0 385 35 0 35 0 0 -145z m-227 90 c11 -5 17 -18 17 -37 l0
-29 -57 8 c-193 27 -302 -16 -365 -145 -30 -60 -33 -74 -32 -156 1 -104 23
-168 77 -224 59 -62 100 -77 212 -77 55 0 115 4 133 8 31 8 32 7 32 -22 0 -37
-4 -40 -87 -50 -196 -24 -340 45 -412 198 -23 50 -26 68 -26 166 0 98 3 116
26 165 47 101 125 168 228 197 47 13 218 12 254 -2z m985 -181 c17 -5 22 -14
22 -39 0 -33 -1 -33 -38 -28 -53 7 -96 -17 -124 -70 -21 -38 -23 -58 -26 -219
l-4 -178 -34 0 -34 0 0 261 0 260 33 -3 c29 -3 32 -6 35 -42 l3 -39 26 38 c35
51 87 73 141 59z m449 -30 c115 -67 156 -250 88 -390 -49 -100 -157 -150 -269
-125 -77 17 -128 58 -162 128 -25 50 -29 70 -29 143 0 73 4 93 28 143 47 96
130 141 241 132 39 -3 75 -14 103 -31z m545 26 c21 -6 51 -22 68 -36 49 -41
60 -100 60 -311 l0 -183 -35 0 -35 0 0 183 c0 210 -8 250 -53 278 -41 26 -125
22 -165 -8 -55 -40 -62 -70 -62 -270 l0 -183 -35 0 -35 0 0 260 0 260 30 0
c27 0 30 -3 30 -31 l0 -31 31 31 c17 17 43 34 57 37 15 3 32 7 37 9 21 7 71 4
107 -5z m612 -14 c86 -36 141 -138 140 -261 -1 -172 -127 -293 -282 -270 -125
19 -200 108 -210 251 -10 152 59 263 183 295 39 10 128 2 169 -15z m521 7 c10
-3 15 -15 13 -32 -2 -20 -7 -25 -23 -21 -11 3 -53 5 -92 5 -84 0 -114 -19
-115 -73 -1 -44 12 -56 121 -112 110 -56 135 -86 135 -160 0 -56 -24 -94 -78
-123 -33 -18 -57 -22 -126 -21 -96 0 -133 14 -128 47 2 17 9 21 28 20 14 -2
52 -6 86 -9 92 -10 144 24 144 93 0 38 -36 72 -126 116 -90 45 -124 84 -124
140 0 71 40 119 115 138 31 8 142 3 170 -8z"/>
<path d="M6150 8828 c-55 -28 -85 -72 -100 -144 -26 -126 38 -252 139 -269
118 -20 205 71 204 215 -1 107 -49 190 -122 210 -53 14 -72 12 -121 -12z"/>
<path d="M7346 8840 c-46 -14 -95 -69 -111 -124 -53 -178 61 -340 208 -296 81
24 127 101 127 212 0 99 -36 168 -104 199 -44 20 -74 22 -120 9z"/>
</g>
</svg>
